<?xml version="1.0" standalone="no"?>
<!DOCTYPE svg PUBLIC "-//W3C//DTD SVG 20010904//EN"
 "http://www.w3.org/TR/2001/REC-SVG-20010904/DTD/svg10.dtd">
<svg version="1.0" xmlns="http://www.w3.org/2000/svg"
 width="126.000000pt" height="126.000000pt" viewBox="0 0 126.000000 126.000000"
 preserveAspectRatio="xMidYMid meet">
<metadata>
Created by potrace 1.10, written by Peter Selinger 2001-2011
</metadata>
<g transform="translate(0.000000,126.000000) scale(0.100000,-0.100000)"
fill="#000000" stroke="none">
<path d="M0 630 l0 -630 630 0 630 0 0 630 0 630 -630 0 -630 0 0 -630z m1198
568 c16 -16 16 -180 0 -196 -7 -7 -20 -12 -30 -12 -17 0 -18 -20 -18 -365 0
-318 2 -365 15 -365 8 0 24 -9 35 -20 16 -16 20 -33 20 -88 0 -105 -8 -112
-135 -112 -124 0 -125 1 -125 114 0 69 2 76 28 95 l27 20 -58 1 c-52 0 -63 -4
-110 -40 -280 -211 -671 -64 -762 286 -56 215 60 450 271 551 78 38 80 38 204
38 115 0 129 -2 184 -27 32 -16 79 -43 105 -62 51 -37 56 -39 121 -37 l45 2
-27 20 c-26 19 -28 25 -28 97 0 106 7 112 130 112 61 0 100 -4 108 -12z"/>
<path d="M982 1103 c3 -78 3 -78 31 -78 25 1 27 -2 27 -37 l0 -38 -78 0 c-70
0 -81 3 -112 28 -90 72 -174 102 -291 102 -241 0 -440 -182 -456 -419 -27
-390 409 -630 729 -402 50 36 60 40 131 43 l77 3 0 -37 c0 -33 -3 -37 -27 -40
-28 -3 -28 -4 -28 -78 l0 -75 103 -3 102 -3 0 81 0 80 -40 0 -40 0 2 397 3
397 35 0 35 1 3 78 3 77 -106 0 -106 0 3 -77z m188 -3 c0 -60 0 -60 -30 -60
-29 0 -30 2 -30 45 0 43 -1 45 -30 45 -29 0 -30 -2 -30 -45 0 -38 -3 -45 -20
-45 -18 0 -20 7 -20 60 l0 60 80 0 80 0 0 -60z m-80 -25 c0 -19 -4 -35 -10
-35 -5 0 -10 16 -10 35 0 19 5 35 10 35 6 0 10 -16 10 -35z m-515 -55 c3 -6
-1 -13 -10 -16 -19 -8 -30 0 -20 15 8 14 22 14 30 1z m110 -109 c33 -16 69
-36 80 -45 20 -15 20 -15 -3 -16 -13 0 -44 12 -69 27 -68 40 -172 44 -245 11
-113 -52 -173 -144 -172 -263 0 -88 27 -148 94 -208 90 -81 218 -98 318 -42
49 28 92 34 73 12 -6 -8 -35 -26 -66 -41 -78 -40 -185 -42 -266 -4 -139 64
-216 221 -175 360 56 193 259 292 431 209z m385 -14 l0 -34 -92 -1 c-98 -2
-108 -6 -108 -54 l0 -28 -79 0 c-77 0 -78 0 -78 25 0 22 4 25 37 25 59 0 70 8
70 49 0 21 3 41 7 44 3 4 60 7 125 7 l118 0 0 -33z m-775 -7 c-5 -8 -11 -8
-17 -2 -6 6 -7 16 -3 22 5 8 11 8 17 2 6 -6 7 -16 3 -22z m361 -17 c48 -18 49
-18 17 -21 -32 -3 -33 -5 -33 -48 0 -39 3 -44 22 -44 17 0 19 -3 10 -12 -10
-10 -18 -8 -41 5 -16 9 -36 17 -45 17 -12 0 -16 10 -16 45 0 25 -4 45 -10 45
-5 0 -10 -20 -10 -45 0 -35 -4 -45 -16 -45 -9 0 -29 -8 -45 -17 -29 -17 -29
-17 -64 17 -25 24 -35 29 -35 18 0 -9 14 -28 31 -41 31 -24 31 -26 15 -48 -9
-13 -16 -31 -16 -41 0 -15 -9 -18 -50 -18 -27 0 -50 -4 -50 -10 0 -5 20 -10
45 -10 35 0 47 -4 51 -17 3 -10 12 -31 19 -46 14 -27 13 -30 -15 -54 -17 -13
-30 -32 -30 -41 0 -12 10 -6 35 19 l36 35 44 -20 c43 -20 45 -23 45 -63 0 -24
5 -43 10 -43 6 0 10 19 10 43 0 40 2 43 45 63 37 17 47 18 56 7 9 -10 7 -13
-10 -13 -18 0 -21 -6 -21 -46 0 -46 0 -46 29 -42 47 7 25 -10 -36 -28 -96 -28
-181 -7 -256 65 -49 46 -66 79 -78 150 -31 197 163 352 357 284z m384 -245 l0
-218 -39 0 -39 0 18 38 c46 94 47 262 2 352 -11 22 -18 41 -16 42 1 2 18 3 38
3 l36 0 0 -217z m-348 177 c4 -19 1 -25 -13 -25 -14 0 -19 7 -19 25 0 15 6 25
14 25 7 0 16 -11 18 -25z m110 -72 c18 -45 21 -153 5 -198 -13 -38 -16 -40
-58 -43 -35 -2 -49 2 -63 17 -17 18 -17 22 -2 43 9 12 16 33 16 46 0 21 4 23
43 21 23 -2 44 1 47 7 3 5 -16 10 -42 12 -38 2 -48 7 -48 20 0 10 -7 28 -16
40 -15 21 -15 25 2 43 12 13 30 19 61 19 38 0 45 -3 55 -27z m56 -12 c26 -85
7 -231 -29 -231 -17 0 -17 2 -2 38 21 48 21 146 0 195 -15 35 -15 37 2 37 12
0 22 -12 29 -39z m-308 -31 c0 -35 -10 -38 -34 -11 -17 18 -17 20 1 30 28 16
33 13 33 -19z m51 19 c20 -10 20 -11 3 -30 -24 -27 -34 -24 -34 11 0 33 2 35
31 19z m-88 -47 c21 -23 15 -30 -23 -24 -25 4 -28 7 -19 23 12 24 21 24 42 1z
m135 -8 c2 -15 -4 -19 -28 -20 -35 -1 -36 2 -13 28 20 22 37 19 41 -8z m-458
-23 c0 -14 -18 -23 -30 -16 -6 4 -8 11 -5 16 8 12 35 12 35 0z m773 -6 c1 -5
-6 -11 -15 -13 -11 -2 -18 3 -18 13 0 17 30 18 33 0z m-433 -13 c0 -5 -9 -17
-21 -28 -20 -18 -21 -18 -35 1 -21 29 -17 35 21 35 19 0 35 -4 35 -8z m120 -4
c0 -7 -4 -20 -10 -28 -7 -12 -12 -12 -29 4 -29 26 -26 36 9 36 17 0 30 -5 30
-12z m-35 -58 c-3 -4 -14 -10 -25 -13 -17 -4 -20 0 -20 31 l0 35 25 -23 c13
-12 22 -26 20 -30z m-65 10 c0 -24 -3 -28 -17 -23 -33 11 -34 15 -17 34 24 27
34 24 34 -11z m145 -115 c0 -17 -5 -25 -17 -25 -12 0 -18 8 -18 25 0 17 6 25
18 25 12 0 17 -8 17 -25z m180 -15 l0 -35 98 -3 97 -3 0 -32 0 -32 -123 0
-122 0 -5 45 -5 45 -52 3 c-49 3 -53 5 -53 28 0 25 1 25 82 22 l82 -3 1 -35z
m-575 -75 c0 -8 -7 -15 -15 -15 -8 0 -15 7 -15 15 0 8 7 15 15 15 8 0 15 -7
15 -15z m280 -114 c0 -11 -26 -22 -34 -14 -12 12 -5 23 14 23 11 0 20 -4 20
-9z m470 -76 c0 -43 1 -45 30 -45 29 0 30 2 30 45 0 43 1 45 30 45 30 0 30 0
30 -60 l0 -60 -82 0 -83 0 3 60 c3 51 7 60 23 60 16 0 19 -7 19 -45z m40 10
c0 -19 -4 -35 -10 -35 -5 0 -10 16 -10 35 0 19 5 35 10 35 6 0 10 -16 10 -35z"/>
<path d="M1127 1134 c-8 -8 1 -24 14 -24 5 0 9 7 9 15 0 15 -12 20 -23 9z"/>
<path d="M1130 1080 c0 -5 5 -10 10 -10 6 0 10 5 10 10 0 6 -4 10 -10 10 -5 0
-10 -4 -10 -10z"/>
<path d="M850 874 c0 -14 3 -14 15 -4 8 7 15 14 15 16 0 2 -7 4 -15 4 -8 0
-15 -7 -15 -16z"/>
<path d="M452 833 l-33 -16 20 -21 c29 -28 75 -13 79 27 4 32 -15 35 -66 10z"/>
<path d="M602 825 c0 -16 2 -22 5 -12 2 9 2 23 0 30 -3 6 -5 -1 -5 -18z"/>
<path d="M345 730 c-8 -16 -15 -37 -15 -48 0 -15 6 -18 31 -14 39 6 53 38 30
69 -21 30 -28 29 -46 -7z"/>
<path d="M330 565 c0 -21 28 -75 39 -75 5 0 16 11 25 25 13 19 14 30 6 45 -13
25 -70 28 -70 5z"/>
<path d="M440 454 c-17 -20 3 -41 48 -50 30 -6 32 -5 32 20 0 19 -7 29 -26 36
-34 13 -39 13 -54 -6z"/>
<path d="M602 425 c0 -16 2 -22 5 -12 2 9 2 23 0 30 -3 6 -5 -1 -5 -18z"/>
<path d="M719 698 c9 -26 71 -45 71 -23 0 32 -13 45 -46 45 -30 0 -33 -2 -25
-22z"/>
<path d="M720 560 c-14 -26 -5 -40 25 -40 23 0 45 25 45 49 0 20 -59 12 -70
-9z"/>
<path d="M850 376 c0 -9 5 -16 10 -16 6 0 10 4 10 9 0 6 -4 13 -10 16 -5 3
-10 -1 -10 -9z"/>
<path d="M1130 170 c0 -5 5 -10 10 -10 6 0 10 5 10 10 0 6 -4 10 -10 10 -5 0
-10 -4 -10 -10z"/>
<path d="M1125 131 c-6 -11 9 -23 19 -14 9 9 7 23 -3 23 -6 0 -12 -4 -16 -9z"/>
</g>
</svg>
